<mxfile host="app.diagrams.net" modified="2023-10-16T21:53:13.556Z" agent="Mozilla/5.0 (Macintosh; Intel Mac OS X 10_15_7) AppleWebKit/537.36 (KHTML, like Gecko) Chrome/117.0.0.0 Safari/537.36" version="22.0.4" etag="jkC-4Fa6_7nyPhUsiyG0" type="github">
  <diagram name="Page-1" id="AYKH7S6Qso6Qe_z_5MHJ">
    <mxGraphModel>
      <root>
        <mxCell id="0" />
        <mxCell id="1" parent="0" />
      </root>
    </mxGraphModel>
  </diagram>
</mxfile>
